<?xml version="1.0" encoding="UTF-8" standalone="no"?>
<svg
   version="1.0"
   width="1600.000000pt"
   height="1600.000000pt"
   viewBox="0 0 1600.000000 1600.000000"
   preserveAspectRatio="xMidYMid meet"
   id="svg32"
   sodipodi:docname="78a2cbaba2e19a411474604972ffa2b7.svg"
   xmlns:inkscape="http://www.inkscape.org/namespaces/inkscape"
   xmlns:sodipodi="http://sodipodi.sourceforge.net/DTD/sodipodi-0.dtd"
   xmlns="http://www.w3.org/2000/svg"
   xmlns:svg="http://www.w3.org/2000/svg">
  <defs
     id="defs36" />
  <sodipodi:namedview
     id="namedview34"
     pagecolor="#ffffff"
     bordercolor="#666666"
     borderopacity="1.0"
     inkscape:pageshadow="2"
     inkscape:pageopacity="0.0"
     inkscape:pagecheckerboard="0"
     inkscape:document-units="pt" />
  <metadata
     id="metadata2">
Created by potrace 1.16, written by Peter Selinger 2001-2019
</metadata>
  <g
     transform="translate(0.000000,1600.000000) scale(0.100000,-0.100000)"
     fill="#000000"
     stroke="none"
     id="g30">
    <path
       d="M2385 11150 c-222 -45 -418 -232 -475 -455 -20 -77 -20 -112 -20 -1851 0 -1958 -3 -1859 63 -1999 64 -132 167 -234 302 -296 118 -54 157 -56 790 -55 l580 2 3 562 2 562 -275 0 -275 0 0 1205 0 1205 690 0 690 0 2 -1522 3 -1523 26 -70 c75 -206 227 -344 442 -401 57 -15 261 -17 2402 -19 1287 -1 2393 0 2458 3 l117 5 0 2329 0 2328 -590 0 -590 0 0 -1765 0 -1765 -260 0 -260 0 0 1765 0 1765 -2892 -1 c-1591 -1 -2911 -5 -2933 -9z m4645 -2325 l0 -1205 -692 0 -693 0 1 1198 c1 658 2 1200 3 1205 1 4 312 7 691 7 l690 0 0 -1205z"
       id="path4" />
    <path
       d="M10410 11025 l0 -135 460 0 460 0 0 -2060 0 -2060 -460 0 -460 0 0 -134 0 -135 33 -3 c17 -2 287 -2 600 0 l567 2 0 2330 0 2330 -600 0 -600 0 0 -135z"
       id="path6" />
    <path
       d="M11970 10595 l0 -565 275 0 275 0 0 -1200 0 -1200 -275 0 -275 0 0 -135 0 -135 410 0 410 0 0 1470 0 1470 -272 2 -273 3 0 290 0 290 595 0 595 0 1 -2057 1 -2058 -733 0 -734 0 0 -135 0 -135 688 0 c378 0 725 -1 772 -1 47 -1 129 -1 183 0 l97 1 0 2330 0 2330 -870 0 -870 0 0 -565z"
       id="path8" />
    <path
       d="M10424 10721 c-2 -2 -4 -64 -4 -138 l0 -133 235 0 235 0 -2 -1625 -2 -1625 -233 0 -233 0 0 -135 0 -135 370 0 370 0 0 1895 0 1895 -366 2 c-201 2 -368 1 -370 -1z"
       id="path10" />
    <path
       d="M12798 10722 l-378 -2 0 -135 0 -135 280 0 280 0 0 -1625 0 -1625 -500 0 -500 0 0 -135 0 -135 635 0 635 0 0 1895 c0 1798 -1 1895 -17 1896 -10 0 -27 1 -38 2 -11 1 -190 1 -397 -1z"
       id="path12" />
    <path
       d="M10410 8830 l0 -1470 140 0 140 0 0 1470 0 1470 -140 0 -140 0 0 -1470z"
       id="path14" />
    <path
       d="M7822 6055 c-101 -24 -220 -92 -297 -169 -220 -222 -243 -557 -55 -807 117 -156 294 -241 500 -240 172 0 322 66 443 194 l58 61 45 -52 c58 -66 175 -144 258 -172 333 -111 687 65 792 394 37 115 37 257 0 371 -84 261 -317 435 -586 435 -166 0 -310 -61 -433 -181 l-78 -77 -77 77 c-123 122 -267 181 -437 180 -44 0 -104 -6 -133 -14z m281 -288 c138 -63 223 -226 196 -374 -22 -118 -107 -222 -217 -263 -80 -31 -194 -25 -274 14 -72 34 -140 108 -168 184 -30 77 -25 203 11 277 26 55 90 125 138 149 96 50 222 55 314 13z m960 18 c100 -26 187 -99 231 -194 30 -66 30 -216 -1 -283 -30 -66 -96 -133 -162 -165 -49 -25 -67 -28 -151 -28 -113 0 -163 19 -238 89 -165 155 -137 430 56 543 87 51 169 63 265 38z"
       id="path16" />
    <path
       d="M2261 6024 c-92 -19 -161 -56 -215 -114 -73 -79 -91 -126 -91 -245 0 -123 23 -181 96 -250 63 -59 122 -86 282 -128 164 -44 195 -70 143 -122 -71 -70 -243 -21 -263 75 -5 28 -9 31 -32 25 -38 -9 -42 -17 -28 -60 37 -120 208 -181 335 -118 82 40 104 133 46 194 -29 31 -65 45 -216 83 -154 40 -226 85 -270 171 -29 56 -35 158 -14 223 71 213 414 282 609 121 34 -28 95 -115 86 -123 -2 -2 -42 -12 -88 -23 l-84 -20 -38 38 c-40 40 -89 59 -154 59 -120 0 -198 -127 -129 -210 35 -41 60 -52 179 -85 252 -68 335 -131 351 -266 13 -111 -47 -223 -151 -285 -155 -91 -425 -72 -550 38 -45 40 -86 106 -99 162 -6 23 -11 27 -29 22 -12 -3 -28 -6 -35 -6 -17 0 -7 -40 29 -117 51 -106 159 -185 294 -213 83 -18 227 -16 304 4 197 51 324 213 308 392 -16 171 -107 249 -386 332 -72 22 -141 48 -151 57 -43 39 -13 93 57 102 59 8 110 -18 129 -64 9 -21 18 -40 20 -42 2 -2 73 14 159 34 174 43 161 29 124 130 -66 178 -299 279 -528 229z"
       id="path18" />
    <path
       d="M3840 5643 c0 -421 6 -476 55 -576 67 -134 200 -210 394 -223 217 -16 401 68 476 215 56 111 59 142 59 571 l1 395 -167 3 -167 2 -3 -377 c-3 -333 -5 -382 -20 -409 -50 -91 -199 -98 -262 -11 -20 27 -21 42 -24 413 l-3 384 -34 0 -35 0 0 -373 c0 -423 2 -440 70 -501 47 -42 107 -60 176 -53 103 11 171 69 193 167 6 26 11 184 11 368 l0 322 96 0 95 0 -3 -387 -3 -388 -28 -61 c-71 -154 -232 -226 -453 -204 -196 20 -311 120 -344 299 -6 30 -10 221 -10 432 l0 379 -35 0 -35 0 0 -387z"
       id="path20" />
    <path
       d="M2900 5855 l0 -165 130 0 130 0 0 -420 0 -420 35 0 35 0 0 455 0 455 -130 0 -131 0 3 93 3 92 353 3 352 2 0 -95 0 -95 -130 0 -130 0 0 -455 0 -455 40 0 40 0 0 420 0 420 125 0 125 0 0 165 0 165 -425 0 -425 0 0 -165z"
       id="path22" />
    <path
       d="M4980 5560 l0 -462 258 4 c280 5 301 9 385 67 153 105 170 373 31 501 -74 68 -119 82 -271 88 l-133 4 0 -296 0 -297 -97 3 -98 3 0 385 0 385 225 -1 c253 -1 320 -11 423 -67 159 -84 240 -236 240 -447 0 -250 -124 -420 -354 -487 -41 -12 -121 -17 -331 -20 l-278 -5 0 -35 0 -35 283 5 c227 3 294 8 341 21 266 77 408 271 410 556 1 290 -145 490 -411 562 -68 18 -115 21 -350 25 l-273 5 0 -462z m560 105 c109 -55 161 -175 130 -304 -28 -116 -111 -176 -262 -187 l-88 -7 0 263 0 263 93 -5 c60 -3 104 -11 127 -23z"
       id="path24" />
    <path
       d="M6150 5435 l0 -585 170 0 170 0 -2 583 -3 582 -32 3 -33 3 0 -550 0 -551 -100 0 -100 0 0 550 0 550 -35 0 -35 0 0 -585z"
       id="path26" />
    <path
       d="M6670 5435 l0 -585 170 0 170 0 -2 583 -3 582 -32 3 -33 3 0 -550 0 -551 -100 0 -100 0 0 550 0 550 -35 0 -35 0 0 -585z"
       id="path28" />
  </g>
</svg>
