<svg version="1.1" id="Layer_1" xmlns="http://www.w3.org/2000/svg" xmlns:xlink="http://www.w3.org/1999/xlink" x="0px" y="0px"
	 width="100%" viewBox="0 0 512 512" enable-background="new 0 0 512 512" xml:space="preserve">
<path fill="#000000" opacity="1.000000" stroke="none" 
	d="
M293.999939,305.936401 
	C252.179260,305.928772 210.858551,305.918640 169.537842,305.919220 
	C165.698212,305.919281 161.839600,305.910583 158.128540,304.861420 
	C148.758194,302.212250 142.998138,294.058716 143.098846,283.166260 
	C143.357544,255.181534 142.567093,227.191986 143.517731,199.210800 
	C143.712433,193.479935 142.687607,192.404099 137.098877,192.389587 
	C126.435623,192.361908 115.770409,192.505020 105.109871,192.334885 
	C101.466927,192.276718 100.073357,193.471527 100.093544,197.193756 
	C100.213707,219.352844 100.240898,241.513184 100.121681,263.672150 
	C100.100266,267.652283 101.588806,268.784698 105.420097,268.788849 
	C117.357445,268.801849 117.364479,268.935089 117.376259,281.042328 
	C117.382736,287.706970 117.251991,294.373993 117.399376,301.035156 
	C117.466805,304.082245 116.584976,305.838440 113.293510,305.825928 
	C102.300323,305.784058 91.270004,306.322174 80.323639,305.592346 
	C68.037888,304.773224 60.929226,295.953613 60.901131,282.677765 
	C60.836243,252.020645 60.905853,221.363205 60.918125,190.705902 
	C60.920059,185.874054 60.791615,181.039047 60.924221,176.210999 
	C61.261063,163.946869 69.857071,155.597504 81.960556,155.602234 
	C140.275925,155.625015 198.591309,155.636734 256.906677,155.658035 
	C264.162262,155.660675 264.190613,155.676315 264.191681,162.783096 
	C264.196655,195.439713 264.156738,228.096405 264.233337,260.752838 
	C264.239166,263.244446 262.921051,266.757751 265.992798,267.963684 
	C269.869354,269.485596 274.263794,269.250488 278.238831,268.007904 
	C280.551086,267.285065 279.678864,264.534027 279.681976,262.643707 
	C279.734924,230.486877 279.731049,198.329941 279.740234,166.173035 
	C279.740753,164.340256 279.865021,162.498154 279.722717,160.676697 
	C279.445068,157.122803 280.759552,155.539963 284.542480,155.602524 
	C294.370026,155.764984 304.203705,155.742264 314.031769,155.588318 
	C317.577271,155.532776 318.550171,156.970581 318.542603,160.350616 
	C318.438171,206.836044 318.383942,253.321884 318.509247,299.807098 
	C318.521698,304.427673 316.939209,306.086700 312.490753,305.957336 
	C306.498688,305.783142 300.497314,305.928558 293.999939,305.936401 
M222.842682,268.620270 
	C225.995087,268.224121 225.629791,265.779449 225.631256,263.666077 
	C225.646561,241.515579 225.574219,219.364838 225.668610,197.214783 
	C225.684341,193.518524 224.307190,192.237015 220.659790,192.292557 
	C209.670120,192.459946 198.674225,192.514633 187.685898,192.321503 
	C183.572769,192.249222 182.140106,193.641190 182.166855,197.792999 
	C182.307434,219.609467 182.323975,241.428299 182.127228,263.244019 
	C182.086472,267.764496 183.755508,268.906647 187.990189,268.811462 
	C199.309830,268.556976 210.638275,268.693451 222.842682,268.620270 
z"/>
<path fill="#000000" opacity="1.000000" stroke="none" 
	d="
M440.269775,277.000000 
	C440.260590,285.329254 440.215118,293.158722 440.257019,300.987701 
	C440.271515,303.696991 439.607788,305.418213 436.383057,305.421997 
	C420.571594,305.440552 404.760376,305.589600 388.948883,305.658691 
	C385.799896,305.672424 383.572845,304.903412 383.613953,300.872711 
	C383.651215,297.223480 384.891113,295.800140 388.558899,295.832489 
	C400.551727,295.938354 412.548706,295.705811 424.538879,295.910645 
	C428.890961,295.984955 430.753479,294.956970 430.733124,290.098206 
	C430.566376,250.285614 430.604431,210.471863 430.723846,170.658890 
	C430.735962,166.626175 429.587372,165.003922 425.363861,165.117096 
	C416.208313,165.362411 407.040680,165.289230 397.880493,165.163269 
	C394.446442,165.116058 393.268768,166.423798 393.188141,169.862656 
	C392.892944,182.449417 392.787781,182.580658 405.116638,182.657349 
	C409.196167,182.682724 410.505615,183.981918 410.592468,188.165314 
	C411.045258,209.981049 411.091034,231.789490 410.568848,253.603271 
	C410.413849,260.078094 410.342468,266.568939 410.627441,273.035065 
	C410.804626,277.056244 409.246368,278.372162 405.418121,278.251160 
	C399.593628,278.067078 393.757385,278.115112 387.929413,278.230835 
	C384.144958,278.306000 383.696655,276.113617 383.653503,273.064911 
	C383.609070,269.926178 384.682709,268.334961 387.969299,268.587433 
	C388.961273,268.663666 389.966705,268.554657 390.966095,268.546082 
	C401.098450,268.459137 400.970917,270.487183 400.934662,258.139099 
	C400.876495,238.316040 400.779175,218.490295 401.064545,198.670944 
	C401.138763,193.517593 399.446472,192.142319 394.477753,192.220123 
	C382.485199,192.407883 383.761993,193.901657 383.686157,181.242020 
	C383.644257,174.245865 383.813538,167.246475 383.653900,160.253860 
	C383.574158,156.760483 384.977264,155.597153 388.373169,155.619751 
	C403.864655,155.722931 419.359741,155.814957 434.847870,155.562881 
	C439.547333,155.486420 440.352264,157.530869 440.336517,161.559677 
	C440.227112,189.545151 440.278137,217.531235 440.276184,245.517136 
	C440.275482,255.844757 440.270691,266.172363 440.269775,277.000000 
z"/>
<path fill="#000000" opacity="1.000000" stroke="none" 
	d="
M363.073181,173.108398 
	C363.053314,165.193649 363.053314,165.202301 355.628937,165.209839 
	C349.797943,165.215744 343.965424,165.113663 338.136505,165.219513 
	C334.494843,165.285629 333.702850,163.328171 333.670197,160.167130 
	C333.637787,157.034515 334.706635,155.609375 337.997070,155.642532 
	C348.158600,155.744949 358.323212,155.765762 368.483795,155.621063 
	C372.107300,155.569473 373.103271,157.333603 373.077545,160.520706 
	C373.018341,167.850616 373.061523,175.181366 373.061554,182.511765 
	C373.061798,220.496658 373.066833,258.481567 373.057617,296.466461 
	C373.055359,305.775696 373.033569,305.878632 363.587067,305.864899 
	C354.929901,305.852325 346.273346,305.503510 337.615906,305.472107 
	C334.410614,305.460480 333.675934,303.814575 333.689056,301.068298 
	C333.701996,298.365265 333.844391,295.935608 337.446747,295.923462 
	C343.943756,295.901550 350.454956,295.596924 356.933136,295.932983 
	C361.885986,296.189941 363.132233,294.199615 363.116486,289.543945 
	C362.985870,250.893143 363.058136,212.241623 363.073181,173.108398 
z"/>
<path fill="#000000" opacity="1.000000" stroke="none" 
	d="
M252.750473,318.629089 
	C258.899323,317.811615 264.178558,319.132385 268.470337,322.989410 
	C271.134216,325.383392 272.824249,325.231262 275.609528,323.017303 
	C283.490784,316.752655 292.951080,316.771210 300.492004,322.529877 
	C307.613098,327.967926 310.326782,337.514313 307.110535,345.812622 
	C302.635406,357.358887 288.666962,362.192352 278.063934,355.800903 
	C276.082611,354.606567 274.287231,353.103851 272.468689,351.788727 
	C271.223511,351.588531 270.581970,352.427185 269.821777,353.049225 
	C262.335968,359.174622 253.718719,360.347717 246.214981,356.270538 
	C238.748001,352.213348 234.681244,344.257843 235.750809,335.800140 
	C236.799606,327.506592 242.973984,321.140411 252.750473,318.629089 
M278.963989,343.457092 
	C279.546204,344.263885 280.027435,345.173645 280.727570,345.860229 
	C284.360931,349.423157 290.247284,349.902527 294.498352,347.050659 
	C298.156982,344.596252 299.744324,339.541656 298.261353,335.067871 
	C296.682373,330.304321 292.212646,327.616089 286.855927,328.208252 
	C279.958618,328.970795 276.691254,334.776550 278.963989,343.457092 
M263.325653,345.870789 
	C267.494110,340.128845 266.991272,333.852600 262.062531,330.104370 
	C257.753723,326.827576 251.233444,327.617859 247.702744,331.844849 
	C244.492386,335.688324 244.453354,341.384033 247.611786,345.123871 
	C251.396790,349.605621 256.983887,350.069550 263.325653,345.870789 
z"/>
<path fill="#000000" opacity="1.000000" stroke="none" 
	d="
M415.787048,250.999954 
	C415.785065,228.685822 415.660767,206.870483 415.877991,185.058563 
	C415.924286,180.406128 414.439606,178.664856 409.890076,179.181168 
	C407.752319,179.423767 405.556396,179.109131 403.402710,179.265762 
	C399.788361,179.528625 397.829224,178.506104 397.808716,174.347427 
	C397.787842,170.121338 399.774170,169.422256 403.389008,169.557419 
	C409.207977,169.775024 415.047577,169.711365 420.868561,169.497696 
	C424.099823,169.379105 425.330139,170.521530 425.325500,173.777847 
	C425.271362,211.744324 425.277557,249.710953 425.342499,287.677429 
	C425.348175,290.997253 423.809631,292.065125 420.778931,292.049469 
	C409.955566,291.993500 399.131561,291.961426 388.308380,292.025330 
	C384.835144,292.045837 383.729431,290.443909 383.685150,287.119537 
	C383.638367,283.609589 384.707581,281.808868 388.470154,281.865784 
	C395.795349,281.976624 403.130524,281.710907 410.447205,281.985016 
	C414.666138,282.143066 415.955811,280.527252 415.848145,276.476440 
	C415.627075,268.156281 415.784912,259.826050 415.787048,250.999954 
z"/>
<path fill="#000000" opacity="1.000000" stroke="none" 
	d="
M358.344696,217.000061 
	C358.339874,240.158051 358.214844,262.817139 358.424194,285.473114 
	C358.469513,290.375519 357.174377,292.568207 351.982178,292.165802 
	C347.344238,291.806335 342.657959,292.026337 337.993652,292.066864 
	C334.693359,292.095551 333.722321,290.299500 333.725220,287.302612 
	C333.728088,284.329895 334.143768,282.174500 337.867615,281.837311 
	C341.363983,281.520721 346.113953,283.855774 348.059082,280.313904 
	C349.629303,277.454773 348.725067,273.176880 348.731232,269.528076 
	C348.778351,241.538895 348.783752,213.549606 348.792053,185.560364 
	C348.793915,179.237564 348.775879,179.237808 342.347961,179.238586 
	C340.848602,179.238770 339.347961,179.196945 337.850098,179.243744 
	C334.414673,179.351074 333.750549,177.275970 333.729614,174.391220 
	C333.708862,171.531509 334.303802,169.431046 337.721527,169.396027 
	C342.878479,169.343201 348.037170,169.310974 353.190887,169.140747 
	C357.018616,169.014297 358.419098,170.626724 358.374176,174.517151 
	C358.212646,188.509705 358.331451,202.505493 358.344696,217.000061 
z"/>
<path fill="#000000" opacity="1.000000" stroke="none" 
	d="
M333.739014,204.000244 
	C333.730835,198.011337 333.797699,192.520859 333.687439,187.033951 
	C333.621582,183.759048 335.179016,182.679581 338.267273,182.695648 
	C341.380615,182.711868 343.358154,183.432053 343.351379,187.106339 
	C343.298126,216.048492 343.286804,244.990921 343.373352,273.932922 
	C343.384674,277.721008 341.381134,278.208221 338.320831,278.268433 
	C334.365112,278.346252 333.679596,276.157715 333.688690,272.864258 
	C333.751587,250.076370 333.732330,227.288254 333.739014,204.000244 
z"/>
<path fill="#000000" opacity="1.000000" stroke="none" 
	d="
M182.356491,356.809082 
	C174.879395,358.821350 167.775574,358.736084 160.206650,357.624817 
	C161.248901,354.538849 163.289963,354.986786 164.946213,354.932007 
	C168.773590,354.805389 172.616150,354.995544 176.434296,354.760529 
	C185.488907,354.203369 190.752441,348.259613 190.721420,338.864655 
	C190.692062,329.978851 185.226181,324.024231 176.466095,323.334656 
	C163.284683,322.296997 163.284576,322.296997 163.284042,335.260681 
	C163.283951,337.759186 163.266937,340.257874 163.291718,342.756134 
	C163.310089,344.609009 163.171524,346.624329 165.877319,346.705750 
	C168.567535,346.786743 168.641022,344.869019 168.652328,342.950409 
	C168.673920,339.286072 168.764114,335.619385 168.665527,331.957977 
	C168.590759,329.180817 169.937302,328.123566 172.541718,327.919830 
	C179.052460,327.410492 184.377960,331.333862 185.199356,337.374695 
	C186.119705,344.143311 182.496033,348.889557 175.521042,350.051239 
	C161.287186,352.421875 159.807907,351.199524 159.804611,337.035980 
	C159.803604,332.705322 159.863297,328.374268 159.820618,324.044159 
	C159.795303,321.474396 160.687988,319.819336 163.520477,319.876953 
	C168.501572,319.978271 173.498291,319.366516 178.457306,320.442932 
	C187.940063,322.501221 192.970718,327.906769 194.088501,337.406342 
	C195.041656,345.506836 190.732880,352.810669 182.356491,356.809082 
M181.792892,337.038910 
	C181.506821,336.267822 181.367950,335.392242 180.908218,334.744385 
	C179.253342,332.412323 176.890717,330.893402 174.085129,331.556335 
	C170.828323,332.325867 172.369720,335.369019 172.077652,337.474457 
	C171.896500,338.780457 171.934967,340.142090 172.064346,341.460144 
	C172.258392,343.436646 171.170853,346.275055 174.413651,346.617065 
	C177.443665,346.936646 180.081161,345.637573 181.307022,342.726318 
	C181.919601,341.271545 181.723572,339.476349 181.792892,337.038910 
z"/>
<path fill="#000000" opacity="1.000000" stroke="none" 
	d="
M64.444839,325.766968 
	C70.548050,318.249969 82.094727,317.214081 88.049606,323.463806 
	C89.833282,325.335815 91.902206,327.510040 90.585220,330.444397 
	C89.784752,332.227936 82.192818,333.333984 80.500313,332.034485 
	C79.029915,330.905548 77.791283,329.470886 75.783302,331.002594 
	C75.562881,332.969543 77.174973,333.094696 78.313446,333.536713 
	C80.484016,334.379364 82.784798,334.913849 84.899193,335.869171 
	C93.778679,339.881165 94.959679,349.442993 87.386841,355.493805 
	C81.642265,360.083801 70.383324,359.702637 65.046669,354.737518 
	C62.357464,352.235565 61.732819,350.389130 62.485485,347.145477 
	C64.138916,346.787750 64.314079,348.251007 64.890152,349.153625 
	C68.970543,355.547241 78.212265,357.596924 84.621956,353.473907 
	C87.505371,351.619202 88.896576,349.004852 88.855721,345.496857 
	C88.813431,341.865784 86.587601,340.099152 83.663910,338.920685 
	C81.356186,337.990509 78.960365,337.265991 76.575439,336.543335 
	C73.172005,335.512054 70.674919,333.791138 71.887886,329.749359 
	C72.772346,326.802216 76.766876,325.928314 80.493690,327.642365 
	C83.602562,329.072266 83.602577,329.072235 86.229622,328.053223 
	C84.719704,324.081696 80.751793,321.908875 76.026917,322.466248 
	C70.361977,323.134552 66.741577,326.259674 66.306892,330.859619 
	C65.834648,335.857269 68.504486,338.650299 72.916237,340.142670 
	C75.435402,340.994781 78.038177,341.608887 80.531227,342.526062 
	C82.395523,343.211914 83.486572,344.695251 83.440369,346.766144 
	C83.392662,348.904510 81.940239,350.034363 80.176895,350.773376 
	C74.973900,352.954010 70.162384,350.075439 70.217644,344.797821 
	C72.620872,344.118744 72.780083,347.111877 74.541534,347.457184 
	C76.143692,347.771240 77.769012,348.404053 79.443909,346.718018 
	C77.993828,343.957642 74.987236,344.297882 72.710754,343.537506 
	C63.978527,340.621002 61.093857,334.848480 64.444839,325.766968 
z"/>
<path fill="#000000" opacity="1.000000" stroke="none" 
	d="
M131.822906,326.204712 
	C131.987396,323.835632 131.476746,321.742920 133.196350,320.206604 
	C135.965164,320.965637 135.216599,323.135010 135.251358,324.747986 
	C135.369675,330.238525 135.330139,335.733215 135.298691,341.226013 
	C135.281525,344.225586 136.052094,346.666290 139.584641,346.687103 
	C143.164978,346.708221 143.864090,344.181061 143.878860,341.230591 
	C143.907181,335.571472 144.046158,329.911041 143.963120,324.253754 
	C143.892746,319.458069 147.039337,319.723633 150.373199,319.645782 
	C153.877884,319.563904 156.215179,320.262421 156.124756,324.454376 
	C155.988373,330.776459 156.409760,337.126892 155.977173,343.422882 
	C155.077621,356.515076 140.676926,363.265778 129.687592,355.934387 
	C126.477150,353.792603 124.173523,350.748810 123.926018,346.973083 
	C123.415222,339.181000 123.399864,331.354218 123.296532,323.540192 
	C123.282639,322.490570 123.939590,321.432037 124.330437,320.242065 
	C126.919411,321.045776 126.259201,322.971680 126.284515,324.422119 
	C126.386162,330.246613 126.199867,336.079071 126.411697,341.897949 
	C126.812927,352.919739 136.480469,358.592499 146.593491,353.899384 
	C150.979065,351.864197 152.303635,347.925201 152.538361,343.669647 
	C152.849609,338.026703 152.650528,332.355469 152.664810,326.696381 
	C152.669327,324.904938 152.413391,323.291718 150.076096,323.264069 
	C147.399155,323.232452 147.316299,325.116272 147.312302,327.038483 
	C147.302292,331.865692 147.389771,336.694946 147.274704,341.519531 
	C147.146576,346.892487 144.227402,350.120453 139.658630,350.206421 
	C135.164124,350.291046 132.087372,347.077667 131.879242,341.654419 
	C131.687897,336.667847 131.826752,331.668610 131.822906,326.204712 
z"/>
<path fill="#000000" opacity="1.000000" stroke="none" 
	d="
M118.806961,331.213013 
	C114.529037,330.794525 113.007385,332.338593 113.218216,336.349823 
	C113.514977,341.995911 113.341774,347.669922 113.260796,353.330444 
	C113.238823,354.866333 113.832016,356.725677 111.882759,357.752441 
	C109.560043,357.228668 109.900803,355.326019 109.887726,353.779907 
	C109.829994,346.953186 109.938431,340.124786 109.849846,333.298737 
	C109.806183,329.934509 110.835854,327.817444 114.606606,327.846588 
	C116.168488,327.858673 117.791481,327.510986 117.718513,325.465790 
	C117.644844,323.400513 115.965485,323.316559 114.425697,323.310272 
	C109.596863,323.290527 104.767845,323.298035 99.938980,323.315674 
	C98.368744,323.321442 96.750336,323.519653 96.609505,325.500885 
	C96.459755,327.607544 98.132393,327.935181 99.672165,327.840240 
	C104.022072,327.572052 105.038033,329.967804 104.963440,333.743958 
	C104.838501,340.068939 104.991791,346.398895 104.934631,352.725952 
	C104.918762,354.482697 105.205673,356.453094 103.276222,357.672394 
	C100.916084,356.682861 101.731674,354.570892 101.699890,352.916595 
	C101.591179,347.256989 101.564011,341.591797 101.697891,335.933258 
	C101.768059,332.967896 101.142822,331.012115 97.635406,331.286072 
	C94.496704,331.531219 92.785011,330.158691 93.377808,326.872101 
	C93.905350,323.947296 92.367012,319.682709 97.926689,319.812866 
	C103.917839,319.953186 109.915810,319.775970 115.909439,319.849426 
	C118.132439,319.876678 121.038315,319.245239 121.521393,322.512024 
	C121.978600,325.603912 123.426292,329.210602 118.806961,331.213013 
z"/>
<path fill="#000000" opacity="1.000000" stroke="none" 
	d="
M215.075745,320.895691 
	C217.953796,321.861816 217.161972,324.146210 217.185043,325.988586 
	C217.286972,334.129730 217.226318,342.272766 217.270950,350.414825 
	C217.281662,352.369751 216.963089,354.752777 220.005341,354.701569 
	C223.067352,354.650085 222.590530,352.207458 222.603699,350.299530 
	C222.659958,342.157562 222.599319,334.014557 222.691727,325.873230 
	C222.710876,324.186401 221.985428,322.218719 223.940018,320.698120 
	C226.074493,321.617188 225.882004,323.597809 225.896118,325.278351 
	C225.974258,334.582764 225.830582,343.890289 226.007904,353.192108 
	C226.099655,358.004211 223.406219,358.380707 219.600266,358.366669 
	C215.825684,358.352753 213.669220,357.587097 213.761963,353.163940 
	C213.963959,343.530640 213.802887,333.889862 213.805801,324.252136 
	C213.806152,323.101746 213.718567,321.899506 215.075745,320.895691 
z"/>
<path fill="#000000" opacity="1.000000" stroke="none" 
	d="
M209.182465,324.511810 
	C209.191650,334.440979 209.054901,343.927948 209.249954,353.408112 
	C209.335785,357.579865 207.352173,358.473663 203.734741,358.343842 
	C200.380737,358.223450 197.441208,358.433289 197.556396,353.561584 
	C197.784470,343.916412 197.605484,334.261902 197.637314,324.611389 
	C197.641479,323.343903 197.325653,321.914856 198.820908,320.846863 
	C201.000107,321.812714 200.282516,323.861450 200.296753,325.473450 
	C200.370148,333.792297 200.312744,342.112244 200.340637,350.431671 
	C200.347244,352.398438 200.034363,354.741241 203.098145,354.691589 
	C206.170868,354.641815 205.738510,352.230469 205.748001,350.316650 
	C205.788361,342.163757 205.727890,334.010406 205.758789,325.857422 
	C205.765381,324.122589 205.322342,322.213806 206.808243,320.810486 
	C209.228424,320.940094 208.947983,322.673553 209.182465,324.511810 
z"/>
</svg>